<svg width="885" height="227" viewBox="0 0 885 227" fill="none" xmlns="http://www.w3.org/2000/svg">
<path fill-rule="evenodd" clip-rule="evenodd" d="M853.715 140.223C853.715 140.499 853.504 140.723 853.243 140.723C845.92 140.723 842.017 142.439 835.776 145.181C835.288 145.395 834.786 145.616 834.267 145.843C833.398 146.222 832.408 145.988 831.419 145.45C830.419 144.907 829.329 144.005 828.192 142.876C825.914 140.616 823.365 137.357 820.877 133.945C819.209 131.658 817.557 129.286 816.027 127.09C815.275 126.01 814.552 124.972 813.871 124.007C812.835 122.54 811.896 121.241 811.092 120.208C810.279 119.165 809.631 118.428 809.173 118.057C796.944 108.144 779.856 116.216 776.929 130.178C776.208 133.618 775.431 136.201 774.584 138.096C773.738 139.988 772.806 141.232 771.756 141.939C769.613 143.383 767.232 142.44 764.811 141.061C764.088 140.65 763.354 140.195 762.602 139.73C760.75 138.584 758.79 137.372 756.639 136.572C753.659 135.464 750.385 135.187 746.73 137.125C745.615 137.716 744.044 139.127 742.282 140.966C740.535 142.791 738.644 144.99 736.894 147.106C735.148 149.218 733.548 151.242 732.38 152.721L732.375 152.727C731.791 153.465 731.313 154.07 730.979 154.48C730.813 154.684 730.678 154.846 730.58 154.954C730.535 155.005 730.483 155.06 730.436 155.101L730.434 155.102C730.418 155.116 730.359 155.167 730.278 155.2C730.246 155.213 730.105 155.268 729.936 155.2C729.713 155.111 729.646 154.9 729.633 154.79C729.049 149.839 726.429 144.502 722.739 140.602C719.047 136.7 714.357 134.308 709.648 135.076C702.029 136.319 697.628 141.194 693.961 147.059C692.787 148.935 691.703 150.889 690.61 152.856C689.985 153.983 689.357 155.114 688.709 156.237C686.94 159.301 685.041 162.267 682.697 164.751C682.407 165.059 682.084 165.256 681.729 165.327C681.377 165.397 681.036 165.334 680.725 165.2C680.125 164.943 679.56 164.392 679.06 163.833C678.804 163.547 678.551 163.242 678.308 162.949L678.306 162.946C678.061 162.651 677.826 162.369 677.598 162.114C677.368 161.857 677.154 161.64 676.954 161.474C676.752 161.306 676.587 161.211 676.457 161.172C674.688 160.636 672.313 160.513 669.904 160.652C667.502 160.791 665.109 161.186 663.323 161.66C660.456 162.419 656.818 164.418 652.756 166.964C650.551 168.346 648.257 169.866 645.912 171.42C643.924 172.737 641.899 174.079 639.858 175.383C635.441 178.206 631.013 180.811 626.971 182.433C622.946 184.047 619.207 184.729 616.221 183.562C613.937 182.67 611.922 181.718 610.025 180.795C609.692 180.633 609.363 180.472 609.037 180.313C607.502 179.562 606.034 178.844 604.534 178.2C600.912 176.646 597.119 175.535 591.907 175.535C589.511 175.535 588.158 176.078 587.261 176.75C586.807 177.09 586.452 177.475 586.128 177.877C585.987 178.052 585.854 178.227 585.72 178.405L585.656 178.488C585.502 178.692 585.343 178.898 585.175 179.095C584.839 179.49 584.455 179.863 583.951 180.131C583.443 180.401 582.843 180.549 582.094 180.542C580.619 180.529 578.525 179.914 575.296 178.393C570.474 176.12 566.144 172.482 561.867 168.707C561.367 168.266 560.868 167.823 560.369 167.38C556.581 164.018 552.789 160.653 548.643 158.06C547.287 157.211 544.889 155.359 541.86 153.019C540.804 152.203 539.672 151.328 538.48 150.416C533.849 146.872 528.284 142.731 522.717 139.196C517.14 135.655 511.602 132.749 507.02 131.639C504.73 131.085 502.719 130.99 501.077 131.456C499.454 131.915 498.169 132.927 497.306 134.655C494.706 139.862 494.89 145.595 495.079 151.45C495.093 151.907 495.108 152.365 495.121 152.823C495.305 159.101 495.238 165.46 491.181 170.99C485.53 178.692 481.55 188.22 481.55 198.243C481.55 200.791 480.85 208.34 479.797 214.928C479.271 218.222 478.652 221.307 477.979 223.421C477.646 224.465 477.283 225.331 476.878 225.86C476.676 226.124 476.42 226.362 476.1 226.447C475.747 226.54 475.419 226.422 475.152 226.186C472.583 223.917 468.304 222.794 463.128 222.238C458.7 221.763 453.702 221.709 448.706 221.655C447.885 221.646 447.064 221.638 446.245 221.627C440.466 221.551 434.811 221.382 430.269 220.44C425.754 219.504 422.161 217.769 420.749 214.401C419.871 212.309 419.505 210.286 419.251 208.448C419.193 208.026 419.141 207.617 419.09 207.22C418.917 205.866 418.763 204.66 418.447 203.581C418.049 202.223 417.405 201.125 416.158 200.309C414.889 199.479 412.95 198.912 409.905 198.742C405.589 198.501 402.665 197.689 400.682 196.308C398.674 194.91 397.685 192.969 397.16 190.625C396.708 188.604 396.593 186.241 396.466 183.639C396.448 183.263 396.429 182.882 396.409 182.496C396.251 179.42 396.01 175.99 395.18 172.248C395.046 171.646 394.91 170.753 394.754 169.74C394.709 169.444 394.662 169.138 394.614 168.825C394.395 167.426 394.133 165.876 393.788 164.469C393.439 163.048 393.018 161.832 392.506 161.064C392.252 160.684 391.999 160.451 391.755 160.339C391.528 160.235 391.269 160.218 390.945 160.351C383.099 163.586 375.031 165.849 366.938 168.12L366.418 168.266C360.024 170.06 355.635 171.031 352.537 171.175C349.422 171.319 347.511 170.632 346.197 169C345.556 168.205 345.081 167.214 344.665 166.062C344.25 164.91 343.883 163.566 343.475 162.056L343.424 161.866C342.614 158.869 341.614 155.163 339.719 150.745C338.081 146.923 335.808 144.304 333.215 141.958C332.054 140.908 330.833 139.917 329.573 138.892C329.421 138.769 329.269 138.646 329.116 138.521C327.697 137.367 326.235 136.162 324.784 134.795C323.731 133.802 322.069 132.762 320.115 131.657C319.258 131.172 318.329 130.667 317.38 130.152C316.215 129.518 315.019 128.868 313.884 128.217C311.8 127.02 309.804 125.758 308.285 124.418C306.779 123.091 305.656 121.616 305.474 119.975C305.108 116.676 303.876 115.156 302.299 114.607C300.653 114.033 298.47 114.453 296.095 115.458C291.368 117.457 286.285 121.594 284.193 123.369C281.641 125.533 279.117 127.643 276.626 129.724C258.383 144.973 241.938 158.717 229.881 181.085L229.791 181.252C228.686 183.305 224.848 190.434 221.129 195.025C220.17 196.209 219.205 197.242 218.284 197.978C217.377 198.703 216.444 199.198 215.561 199.178C214.616 199.156 213.866 198.555 213.352 197.443C212.848 196.355 212.537 194.723 212.43 192.466C212.11 185.689 209.759 178.444 206.72 171.408C204.346 165.912 201.569 160.577 199.036 155.713C198.327 154.35 197.636 153.025 196.98 151.743C184.611 127.599 170.898 102.723 149.387 86.8038C147.827 85.6488 146.432 84.6424 145.166 83.7296C141.795 81.2979 139.345 79.5306 137.141 77.3883C134.087 74.4214 131.5 70.7378 127.512 63.6021C127.217 63.0751 126.921 62.5444 126.624 62.0109C122.554 54.707 118.205 46.9025 112.842 41.5201C109.973 38.6403 106.835 36.4772 103.32 35.455C99.8112 34.4348 95.8925 34.5412 91.4397 36.2577C89.8885 36.8557 88.2294 38.0687 86.5408 39.6754C84.8571 41.2777 83.1695 43.2467 81.5601 45.324C78.9338 48.7133 76.5379 52.36 74.7175 55.1308C74.3049 55.7588 73.9219 56.3417 73.5724 56.8666C60.5724 76.3902 43.9153 91.6139 27.0618 107.017C24.348 109.497 21.6289 111.982 18.9192 114.491C18.7231 114.672 18.4252 114.651 18.2539 114.443C18.0826 114.235 18.1028 113.919 18.2989 113.738C21.0168 111.222 23.7408 108.732 26.4571 106.249C43.3147 90.841 59.8742 75.7051 72.802 56.29C73.1464 55.7728 73.5256 55.1955 73.9354 54.5717C75.7556 51.8012 78.1785 48.113 80.8312 44.6894C82.4575 42.5906 84.1786 40.5798 85.9109 38.9314C87.6384 37.2875 89.4028 35.9791 91.1174 35.3181C95.7365 33.5375 99.8552 33.411 103.569 34.4909C107.277 35.5689 110.547 37.839 113.491 40.7941C118.955 46.278 123.369 54.2014 127.42 61.4725C127.723 62.0165 128.024 62.5569 128.323 63.0924C132.297 70.2023 134.828 73.7848 137.778 76.6513C139.929 78.7413 142.3 80.4521 145.641 82.8624C146.915 83.7813 148.33 84.8019 149.927 85.984C171.643 102.055 185.447 127.137 197.809 151.266C198.459 152.536 199.145 153.853 199.851 155.209C202.386 160.078 205.187 165.458 207.578 170.992C210.634 178.068 213.043 185.449 213.372 192.416C213.476 194.627 213.779 196.097 214.198 197.003C214.606 197.884 215.086 198.167 215.582 198.178C216.139 198.191 216.858 197.867 217.716 197.18C218.561 196.505 219.475 195.532 220.413 194.374C224.071 189.859 227.871 182.801 228.977 180.747L229.063 180.589C241.216 158.042 257.812 144.173 276.047 128.935C278.537 126.853 281.059 124.746 283.604 122.588C285.693 120.816 290.874 116.59 295.745 114.529C298.168 113.504 300.618 112.969 302.593 113.657C304.638 114.369 306.018 116.325 306.411 119.858C306.549 121.103 307.429 122.364 308.888 123.65C310.332 124.923 312.26 126.147 314.333 127.337C315.483 127.997 316.642 128.627 317.784 129.247C318.726 129.759 319.657 130.265 320.559 130.775C322.509 131.877 324.263 132.966 325.411 134.048C326.834 135.389 328.272 136.575 329.69 137.728C329.843 137.852 329.995 137.976 330.147 138.1C331.405 139.122 332.646 140.129 333.827 141.198C336.484 143.601 338.863 146.332 340.578 150.331C342.502 154.817 343.518 158.583 344.328 161.582L344.381 161.78C344.792 163.3 345.148 164.601 345.546 165.704C345.943 166.806 346.372 167.679 346.914 168.351C347.963 169.653 349.528 170.314 352.496 170.176C355.48 170.037 359.779 169.094 366.177 167.299L366.676 167.159C374.784 164.884 382.808 162.633 390.603 159.419C391.139 159.199 391.656 159.204 392.13 159.422C392.589 159.632 392.964 160.021 393.275 160.486C393.892 161.41 394.347 162.776 394.7 164.217C395.057 165.671 395.325 167.259 395.544 168.662C395.595 168.99 395.644 169.307 395.69 169.609C395.844 170.613 395.972 171.454 396.098 172.019C396.948 175.851 397.192 179.352 397.351 182.442C397.371 182.832 397.39 183.215 397.408 183.591C397.536 186.209 397.647 188.469 398.078 190.394C398.564 192.565 399.447 194.252 401.199 195.472C402.977 196.71 405.703 197.506 409.954 197.744C413.068 197.917 415.19 198.501 416.653 199.458C418.139 200.43 418.899 201.755 419.348 203.284C419.69 204.451 419.858 205.77 420.032 207.141C420.081 207.525 420.13 207.913 420.184 208.303C420.434 210.111 420.785 212.027 421.61 213.995C422.819 216.878 425.976 218.531 430.45 219.459C434.895 220.381 440.466 220.551 446.257 220.627C447.071 220.638 447.889 220.647 448.709 220.655C453.701 220.709 458.748 220.763 463.223 221.243C468.412 221.801 472.95 222.939 475.755 225.418C475.844 225.496 475.871 225.477 475.871 225.477C475.904 225.468 476 225.42 476.146 225.23C476.437 224.849 476.757 224.131 477.085 223.101C477.734 221.066 478.343 218.045 478.868 214.761C479.917 208.194 480.607 200.708 480.607 198.243C480.607 187.941 484.694 178.203 490.436 170.377C494.265 165.158 494.363 159.142 494.179 152.854C494.165 152.384 494.15 151.913 494.134 151.44C493.945 145.638 493.749 139.641 496.473 134.187C497.463 132.205 498.966 131.019 500.833 130.49C502.681 129.966 504.862 130.092 507.23 130.665C511.964 131.811 517.607 134.786 523.201 138.338C528.804 141.896 534.396 146.057 539.032 149.606C540.25 150.538 541.399 151.426 542.464 152.248C545.472 154.572 547.809 156.376 549.123 157.199C553.34 159.837 557.195 163.258 560.975 166.614C561.475 167.058 561.973 167.5 562.47 167.939C566.751 171.717 570.991 175.27 575.679 177.479C578.889 178.991 580.833 179.531 582.102 179.542C582.724 179.548 583.173 179.426 583.528 179.237C583.887 179.047 584.18 178.772 584.475 178.426C584.623 178.252 584.768 178.064 584.922 177.861C585.074 177.66 585.237 177.444 585.411 177.228C585.763 176.792 586.175 176.339 586.717 175.933C587.811 175.113 589.369 174.535 591.907 174.535C597.266 174.535 601.18 175.683 604.887 177.273C606.411 177.927 607.904 178.657 609.44 179.408C609.764 179.567 610.09 179.726 610.418 179.886C612.309 180.806 614.298 181.746 616.547 182.624C619.199 183.66 622.662 183.092 626.637 181.498C630.595 179.91 634.962 177.344 639.371 174.527C641.373 173.247 643.397 171.907 645.39 170.587C647.756 169.019 650.08 167.48 652.276 166.104C656.334 163.56 660.079 161.489 663.094 160.69C664.942 160.2 667.395 159.796 669.853 159.654C672.303 159.513 674.799 159.63 676.716 160.211C677.011 160.3 677.286 160.48 677.535 160.687C677.788 160.896 678.038 161.153 678.281 161.425C678.523 161.694 678.767 161.989 679.008 162.278L679.016 162.288C679.261 162.584 679.503 162.875 679.745 163.145C680.241 163.7 680.684 164.104 681.079 164.273C681.265 164.353 681.42 164.371 681.555 164.344C681.689 164.317 681.848 164.238 682.03 164.045C684.294 161.645 686.147 158.76 687.904 155.715C688.534 154.624 689.154 153.508 689.777 152.386C690.88 150.4 691.99 148.401 693.175 146.506C696.904 140.542 701.502 135.393 709.505 134.088C714.615 133.255 719.589 135.861 723.405 139.894C726.972 143.664 729.591 148.743 730.42 153.636C730.736 153.244 731.153 152.716 731.652 152.085L731.658 152.077C732.827 150.599 734.432 148.568 736.185 146.447C737.941 144.323 739.849 142.104 741.62 140.254C743.378 138.419 745.044 136.901 746.309 136.23C750.242 134.146 753.789 134.453 756.951 135.629C759.193 136.462 761.281 137.754 763.16 138.916C763.892 139.368 764.592 139.801 765.257 140.18C767.709 141.576 769.611 142.2 771.25 141.096C772.091 140.529 772.925 139.471 773.731 137.668C774.536 135.868 775.295 133.364 776.009 129.961C779.075 115.333 796.935 106.877 809.746 117.263C810.299 117.711 811.008 118.53 811.819 119.571C812.638 120.623 813.588 121.938 814.626 123.408C815.314 124.383 816.041 125.426 816.795 126.509C818.321 128.701 819.961 131.055 821.623 133.334C824.107 136.74 826.618 139.944 828.836 142.147C829.947 143.249 830.963 144.079 831.849 144.561C832.745 145.048 833.418 145.132 833.908 144.918C834.431 144.69 834.937 144.468 835.429 144.251C841.671 141.507 845.729 139.723 853.243 139.723C853.504 139.723 853.715 139.947 853.715 140.223Z" fill="white"/>
<path d="M70.5624 9.9688H73.1914C74.7855 9.9688 75.5056 9.12738 75.5056 8.01257C75.5056 6.88712 74.7621 6.25161 74.0823 6.21256V6.14155C74.7119 5.97114 75.2377 5.51669 75.2377 4.60781C75.2377 3.53206 74.5344 2.69773 73.0742 2.69773H70.5624V9.9688ZM71.5973 9.02797V6.69895H73.1278C73.9583 6.69895 74.4774 7.267 74.4774 7.95932C74.4774 8.56997 74.0856 9.02797 73.0909 9.02797H71.5973ZM71.5973 5.84332V3.63147H73.0106C73.8311 3.63147 74.2229 4.08946 74.2229 4.69302C74.2229 5.39598 73.6804 5.84332 72.9838 5.84332H71.5973Z" fill="white"/>
<path d="M78.1477 9.9688H82.488V9.02442H79.1825V6.79836H82.2234V5.85752H79.1825V3.64212H82.4478V2.69773H78.1477V9.9688Z" fill="white"/>
<path d="M84.7257 9.9688H85.0204C86.581 9.9688 86.9561 8.74039 87.0465 6.40427L87.1537 3.62792H89.4947V9.9688H90.5162V2.69773H86.1791L86.0619 6.11315C85.9883 8.21849 85.7471 8.98891 84.9266 9.01021L84.7257 9.01731V9.9688Z" fill="white"/>
<path d="M93.4379 2.69773V9.9688H94.389L97.8753 4.63621H97.939V9.9688H98.9738V2.69773H98.016L94.5263 8.03743H94.4627V2.69773H93.4379Z" fill="white"/>
<path d="M105.96 9.9688H107.223L104.393 5.98534L107.24 2.69773H105.957L103.288 5.76877H102.933V2.69773H101.898V9.9688H102.933V6.7096H103.643L105.96 9.9688Z" fill="white"/>
<path d="M109.686 2.69773V9.9688H110.637L114.123 4.63621H114.187V9.9688H115.222V2.69773H114.264L110.774 8.03743H110.711V2.69773H109.686Z" fill="white"/>
<path d="M118.146 2.69773V9.9688H119.097L122.584 4.63621H122.647V9.9688H123.682V2.69773H122.724L119.234 8.03743H119.171V2.69773H118.146ZM121.572 0.851562C121.572 1.21015 121.385 1.52613 120.916 1.52613C120.44 1.52613 120.263 1.2066 120.263 0.851562H119.442C119.442 1.65039 120.015 2.20069 120.916 2.20069C121.823 2.20069 122.396 1.65039 122.396 0.851562H121.572Z" fill="white"/>
<path d="M66.2725 21.9661H67.3073V18.7956H70.7267V21.9661H71.7649V14.695H70.7267V17.8548H67.3073V14.695H66.2725V21.9661Z" fill="white"/>
<path d="M80.6445 18.3305C80.6445 16.0051 79.3317 14.5956 77.5567 14.5956C75.775 14.5956 74.4656 16.0051 74.4656 18.3305C74.4656 20.6524 75.775 22.0655 77.5567 22.0655C79.3317 22.0655 80.6445 20.656 80.6445 18.3305ZM79.6197 18.3305C79.6197 20.1021 78.7356 21.0643 77.5567 21.0643C76.3745 21.0643 75.4937 20.1021 75.4937 18.3305C75.4937 16.5589 76.3745 15.5968 77.5567 15.5968C78.7356 15.5968 79.6197 16.5589 79.6197 18.3305Z" fill="white"/>
<path d="M83.3494 21.9661H85.9784C87.5725 21.9661 88.2926 21.1246 88.2926 20.0098C88.2926 18.8844 87.5491 18.2489 86.8692 18.2098V18.1388C87.4988 17.9684 88.0246 17.514 88.0246 16.6051C88.0246 15.5293 87.3213 14.695 85.8612 14.695H83.3494V21.9661ZM84.3842 21.0252V18.6962H85.9147C86.7453 18.6962 87.2644 19.2643 87.2644 19.9566C87.2644 20.5672 86.8726 21.0252 85.8779 21.0252H84.3842ZM84.3842 17.8406V15.6287H85.7975C86.618 15.6287 87.0099 16.0867 87.0099 16.6903C87.0099 17.3932 86.4673 17.8406 85.7707 17.8406H84.3842Z" fill="white"/>
<path d="M95.2113 14.695H90.9346V21.9661H91.9695V15.6394H95.2113V14.695Z" fill="white"/>
<path d="M103.465 18.3305C103.465 16.0051 102.152 14.5956 100.377 14.5956C98.5952 14.5956 97.2857 16.0051 97.2857 18.3305C97.2857 20.6524 98.5952 22.0655 100.377 22.0655C102.152 22.0655 103.465 20.656 103.465 18.3305ZM102.44 18.3305C102.44 20.1021 101.556 21.0643 100.377 21.0643C99.1947 21.0643 98.3139 20.1021 98.3139 18.3305C98.3139 16.5589 99.1947 15.5968 100.377 15.5968C101.556 15.5968 102.44 16.5589 102.44 18.3305Z" fill="white"/>
<path d="M106.17 21.9661H107.204V19.4098H108.611C110.202 19.4098 110.989 18.3909 110.989 17.0489C110.989 15.7104 110.208 14.695 108.614 14.695H106.17V21.9661ZM107.204 18.4796V15.6358H108.504C109.529 15.6358 109.947 16.2252 109.947 17.0489C109.947 17.8725 109.529 18.4796 108.517 18.4796H107.204Z" fill="white"/>
<path d="M119.575 18.3305C119.575 16.0051 118.262 14.5956 116.487 14.5956C114.705 14.5956 113.396 16.0051 113.396 18.3305C113.396 20.6524 114.705 22.0655 116.487 22.0655C118.262 22.0655 119.575 20.656 119.575 18.3305ZM118.55 18.3305C118.55 20.1021 117.666 21.0643 116.487 21.0643C115.305 21.0643 114.424 20.1021 114.424 18.3305C114.424 16.5589 115.305 15.5968 116.487 15.5968C117.666 15.5968 118.55 16.5589 118.55 18.3305Z" fill="white"/>
<path d="M121.76 23.7235H122.752V21.9661H127.357V23.7128H128.348V21.0359H127.571V14.695H123.341L123.18 17.766C123.077 19.7897 122.671 20.624 122.212 21.0359H121.76V23.7235ZM123.432 21.0359C123.823 20.372 124.088 19.3033 124.172 17.766L124.279 15.6394H126.58V21.0359H123.432Z" fill="white"/>
<path d="M6.23679 125.67H0.945312V132.941H1.97682V126.607H5.20529V132.941H6.23679V125.67Z" fill="white"/>
<path d="M14.9306 128.034C14.6961 126.479 13.5474 125.57 12.0973 125.57C10.3223 125.57 9.01281 126.98 9.01281 129.305C9.01281 131.631 10.3156 133.04 12.0973 133.04C13.6043 133.04 14.7062 132.039 14.9306 130.601L13.8857 130.598C13.7082 131.528 12.9714 132.039 12.104 132.039C10.9285 132.039 10.041 131.084 10.041 129.305C10.041 127.541 10.9251 126.572 12.1073 126.572C12.9814 126.572 13.7149 127.093 13.8857 128.034H14.9306Z" fill="white"/>
<path d="M21.6459 132.941H22.9085L20.0785 128.957L22.9252 125.67H21.6425L18.9734 128.741H18.6184V125.67H17.5835V132.941H18.6184V129.682H19.3284L21.6459 132.941Z" fill="white"/>
<path d="M30.9885 129.305C30.9885 126.98 29.6757 125.57 27.9007 125.57C26.119 125.57 24.8096 126.98 24.8096 129.305C24.8096 131.627 26.119 133.04 27.9007 133.04C29.6757 133.04 30.9885 131.631 30.9885 129.305ZM29.9637 129.305C29.9637 131.077 29.0796 132.039 27.9007 132.039C26.7185 132.039 25.8377 131.077 25.8377 129.305C25.8377 127.534 26.7185 126.572 27.9007 126.572C29.0796 126.572 29.9637 127.534 29.9637 129.305Z" fill="white"/>
<path d="M33.6934 132.941H36.3224C37.9165 132.941 38.6366 132.099 38.6366 130.985C38.6366 129.859 37.8931 129.224 37.2132 129.185V129.114C37.8429 128.943 38.3687 128.489 38.3687 127.58C38.3687 126.504 37.6654 125.67 36.2052 125.67H33.6934V132.941ZM34.7282 132V129.671H36.2588C37.0893 129.671 37.6084 130.239 37.6084 130.931C37.6084 131.542 37.2166 132 36.2219 132H34.7282ZM34.7282 128.815V126.603H36.1415C36.9621 126.603 37.3539 127.061 37.3539 127.665C37.3539 128.368 36.8113 128.815 36.1147 128.815H34.7282Z" fill="white"/>
<path d="M154.87 153.608H157.007V159.935H158.038V153.608H160.178V152.664H154.87V153.608Z" fill="white"/>
<path d="M162.766 159.935H165.395C166.989 159.935 167.709 159.094 167.709 157.979C167.709 156.853 166.966 156.218 166.286 156.179V156.108C166.915 155.937 167.441 155.483 167.441 154.574C167.441 153.498 166.738 152.664 165.278 152.664H162.766V159.935ZM163.801 158.994V156.665H165.331C166.162 156.665 166.681 157.233 166.681 157.926C166.681 158.536 166.289 158.994 165.295 158.994H163.801ZM163.801 155.81V153.598H165.214C166.035 153.598 166.426 154.056 166.426 154.659C166.426 155.362 165.884 155.81 165.187 155.81H163.801Z" fill="white"/>
<path d="M170.351 159.935H174.692V158.991H171.386V156.765H174.427V155.824H171.386V153.608H174.651V152.664H170.351V159.935Z" fill="white"/>
<path d="M177.448 159.935H178.483V157.379H179.89C181.481 157.379 182.268 156.36 182.268 155.018C182.268 153.679 181.487 152.664 179.893 152.664H177.448V159.935ZM178.483 156.449V153.605H179.783C180.807 153.605 181.226 154.194 181.226 155.018C181.226 155.842 180.807 156.449 179.796 156.449H178.483Z" fill="white"/>
<path d="M185.94 155.597V152.664H184.902V159.935H187.471C188.998 159.935 189.872 159.033 189.869 157.73C189.872 156.431 188.998 155.597 187.471 155.597H185.94ZM185.94 156.52H187.471C188.358 156.52 188.847 157.059 188.847 157.716C188.847 158.391 188.358 159.012 187.471 159.012H185.94V156.52Z" fill="white"/>
<path d="M247.45 181.93V174.659H245.005C243.414 174.659 242.63 175.6 242.63 176.938C242.63 177.915 243.049 178.657 243.89 178.987L242.369 181.93H243.548L244.941 179.179C244.965 179.179 244.985 179.179 245.008 179.179H246.415V181.93H247.45ZM246.415 178.234H245.102C244.094 178.234 243.672 177.758 243.672 176.938C243.672 176.115 244.094 175.6 245.115 175.6H246.415V178.234Z" fill="white"/>
<path d="M250.368 181.93H251.403V179.374H252.809C254.4 179.374 255.187 178.355 255.187 177.013C255.187 175.674 254.407 174.659 252.813 174.659H250.368V181.93ZM251.403 178.444V175.6H252.702C253.727 175.6 254.146 176.189 254.146 177.013C254.146 177.837 253.727 178.444 252.716 178.444H251.403Z" fill="white"/>
<path d="M263.773 178.295C263.773 175.969 262.46 174.56 260.685 174.56C258.904 174.56 257.594 175.969 257.594 178.295C257.594 180.616 258.904 182.029 260.685 182.029C262.46 182.029 263.773 180.62 263.773 178.295ZM262.748 178.295C262.748 180.066 261.864 181.028 260.685 181.028C259.503 181.028 258.622 180.066 258.622 178.295C258.622 176.523 259.503 175.561 260.685 175.561C261.864 175.561 262.748 176.523 262.748 178.295Z" fill="white"/>
<path d="M272.175 177.023C271.94 175.468 270.791 174.56 269.341 174.56C267.566 174.56 266.257 175.969 266.257 178.295C266.257 180.62 267.56 182.029 269.341 182.029C270.848 182.029 271.95 181.028 272.175 179.59L271.13 179.587C270.952 180.517 270.215 181.028 269.348 181.028C268.172 181.028 267.285 180.073 267.285 178.295C267.285 176.53 268.169 175.561 269.351 175.561C270.225 175.561 270.959 176.083 271.13 177.023H272.175Z" fill="white"/>
<path d="M274.308 181.93H274.603C276.164 181.93 276.539 180.702 276.629 178.366L276.736 175.589H279.077V181.93H280.099V174.659H275.762L275.645 178.074C275.571 180.18 275.33 180.95 274.509 180.971L274.308 180.979V181.93Z" fill="white"/>
<path d="M283.6 181.93L284.23 180.006H286.909L287.535 181.93H288.634L286.165 174.659H284.97L282.502 181.93H283.6ZM284.531 179.083L285.542 175.98H285.596L286.607 179.083H284.531Z" fill="white"/>
<path d="M291.039 181.93H293.668C295.262 181.93 295.982 181.089 295.982 179.974C295.982 178.848 295.238 178.213 294.559 178.174V178.103C295.188 177.932 295.714 177.478 295.714 176.569C295.714 175.493 295.011 174.659 293.55 174.659H291.039V181.93ZM292.074 180.989V178.66H293.604C294.435 178.66 294.954 179.228 294.954 179.921C294.954 180.531 294.562 180.989 293.567 180.989H292.074ZM292.074 177.805V175.593H293.487C294.307 175.593 294.699 176.051 294.699 176.654C294.699 177.357 294.157 177.805 293.46 177.805H292.074Z" fill="white"/>
<path d="M298.105 181.93H298.4C299.96 181.93 300.335 180.702 300.426 178.366L300.533 175.589H302.874V181.93H303.895V174.659H299.558L299.441 178.074C299.367 180.18 299.126 180.95 298.306 180.971L298.105 180.979V181.93Z" fill="white"/>
<path d="M307.862 177.592V174.659H306.824V181.93H309.392C310.92 181.93 311.794 181.028 311.79 179.725C311.794 178.426 310.92 177.592 309.392 177.592H307.862ZM307.862 178.515H309.392C310.28 178.515 310.769 179.054 310.769 179.711C310.769 180.386 310.28 181.007 309.392 181.007H307.862V178.515Z" fill="white"/>
<path d="M321.153 114.673V121.944H322.138V116.679H322.202L324.224 121.933H325.042L327.064 116.682H327.128V121.944H328.113V114.673H326.857L324.673 120.325H324.593L322.409 114.673H321.153Z" fill="white"/>
<path d="M331.786 121.944L332.416 120.019H335.095L335.721 121.944H336.82L334.352 114.673H333.156L330.688 121.944H331.786ZM332.717 119.096L333.729 115.993H333.782L334.794 119.096H332.717Z" fill="white"/>
<path d="M339.225 121.944H340.26V118.773H343.679V121.944H344.717V114.673H343.679V117.832H340.26V114.673H339.225V121.944Z" fill="white"/>
<path d="M347.301 115.617H349.437V121.944H350.469V115.617H352.609V114.673H347.301V115.617Z" fill="white"/>
<path d="M355.682 122.043H356.151C357.223 122.043 357.578 121.408 357.879 120.683L360.25 114.673H359.165L357.564 118.876L355.766 114.673H354.667L357.079 120.13L356.982 120.389C356.834 120.769 356.607 121.077 356.094 121.077H355.682V122.043Z" fill="white"/>
<path d="M362.644 121.944H363.679V119.387H365.085C366.676 119.387 367.463 118.369 367.463 117.027C367.463 115.688 366.683 114.673 365.089 114.673H362.644V121.944ZM363.679 118.457V115.613H364.978C366.003 115.613 366.421 116.203 366.421 117.027C366.421 117.85 366.003 118.457 364.991 118.457H363.679Z" fill="white"/>
<path d="M376.049 118.308C376.049 115.983 374.736 114.573 372.961 114.573C371.179 114.573 369.87 115.983 369.87 118.308C369.87 120.63 371.179 122.043 372.961 122.043C374.736 122.043 376.049 120.634 376.049 118.308ZM375.024 118.308C375.024 120.08 374.14 121.042 372.961 121.042C371.779 121.042 370.898 120.08 370.898 118.308C370.898 116.537 371.779 115.574 372.961 115.574C374.14 115.574 375.024 116.537 375.024 118.308Z" fill="white"/>
<path d="M378.754 121.944H381.383C382.977 121.944 383.697 121.102 383.697 119.987C383.697 118.862 382.953 118.227 382.273 118.187V118.116C382.903 117.946 383.429 117.492 383.429 116.583C383.429 115.507 382.726 114.673 381.265 114.673H378.754V121.944ZM379.788 121.003V118.674H381.319C382.15 118.674 382.669 119.242 382.669 119.934C382.669 120.545 382.277 121.003 381.282 121.003H379.788ZM379.788 117.818V115.606H381.202C382.022 115.606 382.414 116.064 382.414 116.668C382.414 117.371 381.872 117.818 381.175 117.818H379.788Z" fill="white"/>
<path d="M392.297 118.308C392.297 115.983 390.984 114.573 389.209 114.573C387.427 114.573 386.118 115.983 386.118 118.308C386.118 120.63 387.427 122.043 389.209 122.043C390.984 122.043 392.297 120.634 392.297 118.308ZM391.272 118.308C391.272 120.08 390.388 121.042 389.209 121.042C388.027 121.042 387.146 120.08 387.146 118.308C387.146 116.537 388.027 115.574 389.209 115.574C390.388 115.574 391.272 116.537 391.272 118.308Z" fill="white"/>
<path d="M374.74 149.937H376.003L373.173 145.953L376.019 142.666H374.737L372.068 145.737H371.713V142.666H370.678V149.937H371.713V146.678H372.423L374.74 149.937Z" fill="white"/>
<path d="M384.083 146.301C384.083 143.976 382.77 142.566 380.995 142.566C379.213 142.566 377.904 143.976 377.904 146.301C377.904 148.623 379.213 150.036 380.995 150.036C382.77 150.036 384.083 148.627 384.083 146.301ZM383.058 146.301C383.058 148.073 382.174 149.035 380.995 149.035C379.813 149.035 378.932 148.073 378.932 146.301C378.932 144.53 379.813 143.568 380.995 143.568C382.174 143.568 383.058 144.53 383.058 146.301Z" fill="white"/>
<path d="M386.164 143.61H388.301V149.937H389.332V143.61H391.472V142.666H386.164V143.61Z" fill="white"/>
<path d="M394.06 149.937H398.4V148.992H395.095V146.766H398.136V145.826H395.095V143.61H398.36V142.666H394.06V149.937Z" fill="white"/>
<path d="M400.638 149.937H400.932C402.493 149.937 402.868 148.708 402.959 146.372L403.066 143.596H405.407V149.937H406.428V142.666H402.091L401.974 146.081C401.9 148.187 401.659 148.957 400.839 148.978L400.638 148.985V149.937Z" fill="white"/>
<path d="M410.395 145.598V142.666H409.357V149.937H411.925C413.453 149.937 414.327 149.035 414.323 147.732C414.327 146.433 413.453 145.598 411.925 145.598H410.395ZM410.395 146.521H411.925C412.813 146.521 413.302 147.061 413.302 147.718C413.302 148.392 412.813 149.014 411.925 149.014H410.395V146.521Z" fill="white"/>
<path d="M417 149.937H418.034V146.766H421.454V149.937H422.492V142.666H421.454V145.826H418.034V142.666H417V149.937Z" fill="white"/>
<path d="M425.414 142.666V149.937H426.365L429.851 144.604H429.915V149.937H430.95V142.666H429.992L426.502 148.006H426.439V142.666H425.414Z" fill="white"/>
<path d="M434.011 142.666V145.066C434.008 146.688 434.936 147.327 436.436 147.327C437.096 147.327 437.665 147.239 438.157 147.09V149.937H439.182V142.666H438.157V146.152C437.645 146.298 437.009 146.387 436.436 146.387C435.542 146.387 435.033 146.067 435.033 145.066V142.666H434.011Z" fill="white"/>
<path d="M445.137 145.843H442.096V146.763H445.137V145.843Z" fill="white"/>
<path d="M450.284 142.666H449.32C449.283 142.865 448.761 143.784 447.759 143.784V144.686C448.536 144.686 449.075 144.359 449.189 144.146H449.246V149.937H450.284V142.666Z" fill="white"/>
<path d="M498.956 181.657H494.68V188.928H495.715V182.601H498.956V181.657Z" fill="white"/>
<path d="M501.018 188.928H501.313C502.874 188.928 503.249 187.7 503.339 185.364L503.446 182.587H505.787V188.928H506.809V181.657H502.472L502.355 185.072C502.281 187.178 502.04 187.948 501.219 187.97L501.018 187.977V188.928Z" fill="white"/>
<path d="M510.31 188.928L510.939 187.004H513.619L514.245 188.928H515.343L512.875 181.657H511.68L509.211 188.928H510.31ZM511.241 186.081L512.252 182.978H512.306L513.317 186.081H511.241Z" fill="white"/>
<path d="M520.043 189.028C521.443 189.028 522.471 188.14 522.467 186.933C522.471 186.013 521.945 185.353 521.034 185.204V185.147C521.751 184.952 522.216 184.355 522.213 183.539C522.216 182.47 521.389 181.558 520.069 181.558C518.81 181.558 517.799 182.364 517.765 183.546H518.767C518.79 182.878 519.383 182.474 520.056 182.474C520.756 182.474 521.215 182.924 521.211 183.596C521.215 184.298 520.682 184.76 519.922 184.76H519.343V185.655H519.922C520.873 185.655 521.422 186.166 521.422 186.897C521.422 187.604 520.843 188.083 520.036 188.083C519.292 188.083 518.713 187.678 518.673 187.032H517.621C517.665 188.218 518.656 189.028 520.043 189.028Z" fill="white"/>
<path d="M531.2 185.293C531.2 182.967 529.887 181.558 528.112 181.558C526.33 181.558 525.021 182.967 525.021 185.293C525.021 187.614 526.33 189.028 528.112 189.028C529.887 189.028 531.2 187.618 531.2 185.293ZM530.175 185.293C530.175 187.064 529.291 188.026 528.112 188.026C526.93 188.026 526.049 187.064 526.049 185.293C526.049 183.521 526.93 182.559 528.112 182.559C529.291 182.559 530.175 183.521 530.175 185.293Z" fill="white"/>
<path d="M533.904 188.928H536.533C538.128 188.928 538.848 188.087 538.848 186.972C538.848 185.846 538.104 185.211 537.424 185.172V185.101C538.054 184.93 538.58 184.476 538.58 183.567C538.58 182.491 537.876 181.657 536.416 181.657H533.904V188.928ZM534.939 187.987V185.658H536.47C537.3 185.658 537.819 186.226 537.819 186.919C537.819 187.529 537.428 187.987 536.433 187.987H534.939ZM534.939 184.803V182.591H536.353C537.173 182.591 537.565 183.049 537.565 183.652C537.565 184.355 537.022 184.803 536.326 184.803H534.939Z" fill="white"/>
<path d="M502.004 117.195H496.713V124.466H497.744V118.133H500.973V124.466H502.004V117.195Z" fill="white"/>
<path d="M505.001 124.466H509.342V123.522H506.036V121.296H509.077V120.355H506.036V118.14H509.302V117.195H505.001V124.466Z" fill="white"/>
<path d="M512.099 124.466H513.133V121.91H514.54C516.131 121.91 516.918 120.891 516.918 119.549C516.918 118.211 516.137 117.195 514.543 117.195H512.099V124.466ZM513.133 120.98V118.136H514.433C515.458 118.136 515.876 118.726 515.876 119.549C515.876 120.373 515.458 120.98 514.446 120.98H513.133Z" fill="white"/>
<path d="M519.546 117.195V124.466H520.53V119.201H520.594L522.617 124.456H523.434L525.457 119.205H525.52V124.466H526.505V117.195H525.249L523.065 122.847H522.985L520.802 117.195H519.546Z" fill="white"/>
<path d="M530.644 120.128V117.195H529.606V124.466H532.175C533.702 124.466 534.576 123.565 534.572 122.262C534.576 120.962 533.702 120.128 532.175 120.128H530.644ZM530.644 121.051H532.175C533.062 121.051 533.551 121.591 533.551 122.247C533.551 122.922 533.062 123.543 532.175 123.543H530.644V121.051Z" fill="white"/>
<path d="M565.073 155.608H567.21V161.935H568.241V155.608H570.381V154.664H565.073V155.608Z" fill="white"/>
<path d="M574.004 154.664H572.969V161.935H574.004V158.846H575.206C575.394 160.841 576.633 162.034 578.271 162.034C580.046 162.034 581.358 160.625 581.358 158.299C581.358 155.974 580.046 154.564 578.271 154.564C576.586 154.564 575.323 155.825 575.19 157.927H574.004V154.664ZM580.334 158.299C580.334 160.071 579.449 161.033 578.271 161.033C577.088 161.033 576.208 160.071 576.208 158.299C576.208 156.528 577.088 155.566 578.271 155.566C579.449 155.566 580.334 156.528 580.334 158.299Z" fill="white"/>
<path d="M583.888 154.664V161.935H584.873V156.67H584.937L586.959 161.924H587.777L589.799 156.673H589.863V161.935H590.848V154.664H589.592L587.408 160.316H587.328L585.144 154.664H583.888Z" fill="white"/>
<path d="M593.942 161.935H598.282V160.991H594.977V158.764H598.018V157.824H594.977V155.608H598.242V154.664H593.942V161.935Z" fill="white"/>
<path d="M601.039 161.935H602.074V158.764H605.493V161.935H606.531V154.664H605.493V157.824H602.074V154.664H601.039V161.935Z" fill="white"/>
<path d="M610.498 157.596V154.664H609.46V161.935H612.028C613.556 161.935 614.43 161.033 614.426 159.73C614.43 158.431 613.556 157.596 612.028 157.596H610.498ZM610.498 158.52H612.028C612.916 158.52 613.405 159.059 613.405 159.716C613.405 160.391 612.916 161.012 612.028 161.012H610.498V158.52Z" fill="white"/>
<path d="M658.454 180.294C658.454 177.968 657.142 176.559 655.367 176.559C653.585 176.559 652.275 177.968 652.275 180.294C652.275 182.615 653.585 184.028 655.367 184.028C657.142 184.028 658.454 182.619 658.454 180.294ZM657.43 180.294C657.43 182.065 656.545 183.027 655.367 183.027C654.184 183.027 653.304 182.065 653.304 180.294C653.304 178.522 654.184 177.56 655.367 177.56C656.545 177.56 657.43 178.522 657.43 180.294Z" fill="white"/>
<path d="M661.159 176.658V183.929H662.144V178.664H662.207L664.23 183.918H665.047L667.07 178.667H667.134V183.929H668.119V176.658H666.863L664.679 182.31H664.599L662.415 176.658H661.159Z" fill="white"/>
<path d="M676.909 179.023C676.675 177.467 675.526 176.559 674.076 176.559C672.301 176.559 670.992 177.968 670.992 180.294C670.992 182.619 672.294 184.028 674.076 184.028C675.583 184.028 676.685 183.027 676.909 181.589L675.865 181.586C675.687 182.516 674.95 183.027 674.083 183.027C672.907 183.027 672.02 182.072 672.02 180.294C672.02 178.529 672.904 177.56 674.086 177.56C674.96 177.56 675.694 178.082 675.865 179.023H676.909Z" fill="white"/>
<path d="M683.625 183.929H684.887L682.057 179.946L684.904 176.658H683.621L680.952 179.729H680.597V176.658H679.562V183.929H680.597V180.67H681.307L683.625 183.929Z" fill="white"/>
<path d="M760.234 104.948H761.497L758.667 100.964L761.514 97.6766H760.231L757.562 100.748H757.207V97.6766H756.172V104.948H757.207V101.688H757.917L760.234 104.948Z" fill="white"/>
<path d="M763.96 104.948H764.995V102.391H766.401C767.992 102.391 768.779 101.372 768.779 100.03C768.779 98.692 767.999 97.6766 766.405 97.6766H763.96V104.948ZM764.995 101.461V98.6174H766.294C767.319 98.6174 767.737 99.2067 767.737 100.03C767.737 100.854 767.319 101.461 766.307 101.461H764.995Z" fill="white"/>
<path d="M771.259 104.948L771.888 103.023H774.567L775.194 104.948H776.292L773.824 97.6766H772.628L770.16 104.948H771.259ZM772.19 102.1L773.201 98.9973H773.255L774.266 102.1H772.19Z" fill="white"/>
<path d="M784.072 100.041C783.837 98.486 782.689 97.5771 781.238 97.5771C779.463 97.5771 778.154 98.9866 778.154 101.312C778.154 103.638 779.457 105.047 781.238 105.047C782.745 105.047 783.847 104.046 784.072 102.608L783.027 102.604C782.849 103.535 782.113 104.046 781.245 104.046C780.07 104.046 779.182 103.091 779.182 101.312C779.182 99.5476 780.066 98.5783 781.248 98.5783C782.123 98.5783 782.856 99.1002 783.027 100.041H784.072Z" fill="white"/>
<path d="M786.725 104.948H787.76V101.777H791.179V104.948H792.217V97.6766H791.179V100.836H787.76V97.6766H786.725V104.948Z" fill="white"/>
<path d="M801.097 101.312C801.097 98.9866 799.784 97.5771 798.009 97.5771C796.227 97.5771 794.918 98.9866 794.918 101.312C794.918 103.634 796.227 105.047 798.009 105.047C799.784 105.047 801.097 103.638 801.097 101.312ZM800.072 101.312C800.072 103.084 799.188 104.046 798.009 104.046C796.827 104.046 795.946 103.084 795.946 101.312C795.946 99.5405 796.827 98.5783 798.009 98.5783C799.188 98.5783 800.072 99.5405 800.072 101.312Z" fill="white"/>
<path d="M808.376 104.948V97.6766H805.932C804.341 97.6766 803.557 98.6174 803.557 99.9559C803.557 100.932 803.976 101.674 804.816 102.004L803.296 104.948H804.475L805.868 102.196C805.891 102.196 805.911 102.196 805.935 102.196H807.342V104.948H808.376ZM807.342 101.252H806.029C805.021 101.252 804.599 100.776 804.599 99.9559C804.599 99.1322 805.021 98.6174 806.042 98.6174H807.342V101.252Z" fill="white"/>
<path d="M811.295 104.948H812.33V102.391H813.736C815.327 102.391 816.114 101.372 816.114 100.03C816.114 98.692 815.334 97.6766 813.74 97.6766H811.295V104.948ZM812.33 101.461V98.6174H813.629C814.654 98.6174 815.072 99.2067 815.072 100.03C815.072 100.854 814.654 101.461 813.642 101.461H812.33Z" fill="white"/>
<path d="M824.439 100.041C824.204 98.486 823.055 97.5771 821.605 97.5771C819.83 97.5771 818.521 98.9866 818.521 101.312C818.521 103.638 819.824 105.047 821.605 105.047C823.112 105.047 824.214 104.046 824.439 102.608L823.394 102.604C823.216 103.535 822.479 104.046 821.612 104.046C820.436 104.046 819.549 103.091 819.549 101.312C819.549 99.5476 820.433 98.5783 821.615 98.5783C822.489 98.5783 823.223 99.1002 823.394 100.041H824.439Z" fill="white"/>
<path d="M831.154 104.948H832.416L829.587 100.964L832.433 97.6766H831.15L828.481 100.748H828.126V97.6766H827.091V104.948H828.126V101.688H828.836L831.154 104.948Z" fill="white"/>
<path d="M826.736 162.034H827.205C828.277 162.034 828.632 161.399 828.933 160.675L831.305 154.664H830.219L828.619 158.867L826.82 154.664H825.722L828.133 160.121L828.036 160.38C827.889 160.76 827.661 161.069 827.148 161.069H826.736V162.034Z" fill="white"/>
<path d="M833.179 161.935H833.474C835.034 161.935 835.409 160.707 835.5 158.37L835.607 155.594H837.948V161.935H838.969V154.664H834.632L834.515 158.079C834.441 160.185 834.2 160.955 833.38 160.976L833.179 160.983V161.935Z" fill="white"/>
<path d="M842.47 161.935L843.1 160.011H845.779L846.406 161.935H847.504L845.036 154.664H843.84L841.372 161.935H842.47ZM843.401 159.088L844.413 155.985H844.466L845.478 159.088H843.401Z" fill="white"/>
<path d="M849.909 161.935H850.944V158.764H854.363V161.935H855.402V154.664H854.363V157.824H850.944V154.664H849.909V161.935Z" fill="white"/>
<path d="M861.274 157.841H858.233V158.761H861.274V157.841Z" fill="white"/>
<path d="M863.99 162.034H864.459C865.531 162.034 865.886 161.399 866.187 160.675L868.558 154.664H867.473L865.872 158.867L864.074 154.664H862.976L865.387 160.121L865.29 160.38C865.142 160.76 864.915 161.069 864.402 161.069H863.99V162.034Z" fill="white"/>
<path d="M870.433 163.692H871.424V161.935H876.029V163.682H877.02V161.005H876.243V154.664H872.013L871.853 157.735C871.749 159.759 871.344 160.593 870.885 161.005H870.433V163.692ZM872.104 161.005C872.496 160.341 872.76 159.272 872.844 157.735L872.951 155.608H875.252V161.005H872.104Z" fill="white"/>
<path d="M879.351 159.627C879.481 161.005 880.332 162.034 881.987 162.034C883.641 162.034 884.699 160.724 884.699 158.686V157.93C884.699 155.892 883.628 154.564 881.93 154.564C880.315 154.564 879.481 155.608 879.348 157.014H880.402C880.51 156.07 880.928 155.509 881.93 155.509C883.031 155.509 883.648 156.453 883.651 157.923H881.122V158.853H883.648C883.604 160.135 883.075 161.104 881.987 161.104C880.958 161.104 880.52 160.586 880.402 159.627H879.351Z" fill="white"/>
<path d="M101.36 34.2997C101.36 36.2284 99.8849 37.7918 98.0656 37.7918C96.2463 37.7918 94.7715 36.2284 94.7715 34.2997C94.7715 32.3711 96.2463 30.8076 98.0656 30.8076C99.8849 30.8076 101.36 32.3711 101.36 34.2997Z" fill="#272722"/>
<path fill-rule="evenodd" clip-rule="evenodd" d="M98.0656 36.7921C99.3641 36.7921 100.417 35.6762 100.417 34.2997C100.417 32.9232 99.3641 31.8074 98.0656 31.8074C96.7672 31.8074 95.7146 32.9232 95.7146 34.2997C95.7146 35.6762 96.7672 36.7921 98.0656 36.7921ZM98.0656 37.7918C99.8849 37.7918 101.36 36.2284 101.36 34.2997C101.36 32.3711 99.8849 30.8076 98.0656 30.8076C96.2463 30.8076 94.7715 32.3711 94.7715 34.2997C94.7715 36.2284 96.2463 37.7918 98.0656 37.7918Z" fill="white"/>
<path d="M20.4828 115.437C20.4828 117.366 19.008 118.93 17.1887 118.93C15.3694 118.93 13.8945 117.366 13.8945 115.437C13.8945 113.509 15.3694 111.945 17.1887 111.945C19.008 111.945 20.4828 113.509 20.4828 115.437Z" fill="#131313"/>
<path fill-rule="evenodd" clip-rule="evenodd" d="M17.1887 117.93C18.4871 117.93 19.5397 116.814 19.5397 115.437C19.5397 114.061 18.4871 112.945 17.1887 112.945C15.8902 112.945 14.8376 114.061 14.8376 115.437C14.8376 116.814 15.8902 117.93 17.1887 117.93ZM17.1887 118.93C19.008 118.93 20.4828 117.366 20.4828 115.437C20.4828 113.509 19.008 111.945 17.1887 111.945C15.3694 111.945 13.8945 113.509 13.8945 115.437C13.8945 117.366 15.3694 118.93 17.1887 118.93Z" fill="white"/>
<path d="M203.477 156.525C203.477 158.454 202.002 160.017 200.183 160.017C198.364 160.017 196.889 158.454 196.889 156.525C196.889 154.597 198.364 153.033 200.183 153.033C202.002 153.033 203.477 154.597 203.477 156.525Z" fill="#4D5648"/>
<path fill-rule="evenodd" clip-rule="evenodd" d="M200.183 159.018C201.481 159.018 202.534 157.902 202.534 156.525C202.534 155.149 201.481 154.033 200.183 154.033C198.884 154.033 197.832 155.149 197.832 156.525C197.832 157.902 198.884 159.018 200.183 159.018ZM200.183 160.017C202.002 160.017 203.477 158.454 203.477 156.525C203.477 154.597 202.002 153.033 200.183 153.033C198.364 153.033 196.889 154.597 196.889 156.525C196.889 158.454 198.364 160.017 200.183 160.017Z" fill="white"/>
<path d="M233.948 178.351C233.948 180.28 232.473 181.844 230.654 181.844C228.834 181.844 227.359 180.28 227.359 178.351C227.359 176.423 228.834 174.859 230.654 174.859C232.473 174.859 233.948 176.423 233.948 178.351Z" fill="#47443E"/>
<path fill-rule="evenodd" clip-rule="evenodd" d="M230.654 180.844C231.952 180.844 233.005 179.728 233.005 178.351C233.005 176.975 231.952 175.859 230.654 175.859C229.355 175.859 228.302 176.975 228.302 178.351C228.302 179.728 229.355 180.844 230.654 180.844ZM230.654 181.844C232.473 181.844 233.948 180.28 233.948 178.351C233.948 176.423 232.473 174.859 230.654 174.859C228.834 174.859 227.359 176.423 227.359 178.351C227.359 180.28 228.834 181.844 230.654 181.844Z" fill="white"/>
<path d="M317.125 127.716C317.125 129.644 315.651 131.208 313.831 131.208C312.012 131.208 310.537 129.644 310.537 127.716C310.537 125.787 312.012 124.224 313.831 124.224C315.651 124.224 317.125 125.787 317.125 127.716Z" fill="#93A47C"/>
<path fill-rule="evenodd" clip-rule="evenodd" d="M313.831 130.208C315.13 130.208 316.182 129.092 316.182 127.716C316.182 126.339 315.13 125.223 313.831 125.223C312.533 125.223 311.48 126.339 311.48 127.716C311.48 129.092 312.533 130.208 313.831 130.208ZM313.831 131.208C315.651 131.208 317.125 129.644 317.125 127.716C317.125 125.787 315.651 124.224 313.831 124.224C312.012 124.224 310.537 125.787 310.537 127.716C310.537 129.644 312.012 131.208 313.831 131.208Z" fill="white"/>
<path d="M390.419 161.765C390.419 163.693 388.944 165.257 387.125 165.257C385.306 165.257 383.831 163.693 383.831 161.765C383.831 159.836 385.306 158.272 387.125 158.272C388.944 158.272 390.419 159.836 390.419 161.765Z" fill="#738F8C"/>
<path fill-rule="evenodd" clip-rule="evenodd" d="M387.125 164.257C388.424 164.257 389.476 163.141 389.476 161.765C389.476 160.388 388.424 159.272 387.125 159.272C385.827 159.272 384.774 160.388 384.774 161.765C384.774 163.141 385.827 164.257 387.125 164.257ZM387.125 165.257C388.944 165.257 390.419 163.693 390.419 161.765C390.419 159.836 388.944 158.272 387.125 158.272C385.306 158.272 383.831 159.836 383.831 161.765C383.831 163.693 385.306 165.257 387.125 165.257Z" fill="white"/>
<path d="M486.773 185.335C486.773 187.264 485.298 188.827 483.479 188.827C481.659 188.827 480.185 187.264 480.185 185.335C480.185 183.406 481.659 181.843 483.479 181.843C485.298 181.843 486.773 183.406 486.773 185.335Z" fill="#789186"/>
<path fill-rule="evenodd" clip-rule="evenodd" d="M483.479 187.827C484.777 187.827 485.83 186.711 485.83 185.335C485.83 183.958 484.777 182.843 483.479 182.843C482.18 182.843 481.128 183.958 481.128 185.335C481.128 186.711 482.18 187.827 483.479 187.827ZM483.479 188.827C485.298 188.827 486.773 187.264 486.773 185.335C486.773 183.406 485.298 181.843 483.479 181.843C481.659 181.843 480.185 183.406 480.185 185.335C480.185 187.264 481.659 188.827 483.479 188.827Z" fill="white"/>
<path d="M518.066 133.827C518.066 135.756 516.591 137.319 514.772 137.319C512.952 137.319 511.478 135.756 511.478 133.827C511.478 131.898 512.952 130.335 514.772 130.335C516.591 130.335 518.066 131.898 518.066 133.827Z" fill="#8CBABB"/>
<path fill-rule="evenodd" clip-rule="evenodd" d="M514.772 136.319C516.07 136.319 517.123 135.204 517.123 133.827C517.123 132.451 516.07 131.335 514.772 131.335C513.473 131.335 512.421 132.451 512.421 133.827C512.421 135.204 513.473 136.319 514.772 136.319ZM514.772 137.319C516.591 137.319 518.066 135.756 518.066 133.827C518.066 131.898 516.591 130.335 514.772 130.335C512.952 130.335 511.478 131.898 511.478 133.827C511.478 135.756 512.952 137.319 514.772 137.319Z" fill="white"/>
<path d="M571.598 173.113C571.598 175.042 570.123 176.605 568.304 176.605C566.485 176.605 565.01 175.042 565.01 173.113C565.01 171.185 566.485 169.621 568.304 169.621C570.123 169.621 571.598 171.185 571.598 173.113Z" fill="#414847"/>
<path fill-rule="evenodd" clip-rule="evenodd" d="M568.304 175.606C569.602 175.606 570.655 174.49 570.655 173.113C570.655 171.737 569.602 170.621 568.304 170.621C567.005 170.621 565.953 171.737 565.953 173.113C565.953 174.49 567.005 175.606 568.304 175.606ZM568.304 176.605C570.123 176.605 571.598 175.042 571.598 173.113C571.598 171.185 570.123 169.621 568.304 169.621C566.485 169.621 565.01 171.185 565.01 173.113C565.01 175.042 566.485 176.605 568.304 176.605Z" fill="white"/>
<path d="M671.245 160.018C671.245 161.946 669.77 163.51 667.95 163.51C666.131 163.51 664.656 161.946 664.656 160.018C664.656 158.089 666.131 156.525 667.95 156.525C669.77 156.525 671.245 158.089 671.245 160.018Z" fill="#577379"/>
<path fill-rule="evenodd" clip-rule="evenodd" d="M667.95 162.51C669.249 162.51 670.301 161.394 670.301 160.018C670.301 158.641 669.249 157.525 667.95 157.525C666.652 157.525 665.599 158.641 665.599 160.018C665.599 161.394 666.652 162.51 667.95 162.51ZM667.95 163.51C669.77 163.51 671.245 161.946 671.245 160.018C671.245 158.089 669.77 156.525 667.95 156.525C666.131 156.525 664.656 158.089 664.656 160.018C664.656 161.946 666.131 163.51 667.95 163.51Z" fill="white"/>
<path d="M798.495 112.874C798.495 114.803 797.021 116.366 795.201 116.366C793.382 116.366 791.907 114.803 791.907 112.874C791.907 110.945 793.382 109.382 795.201 109.382C797.021 109.382 798.495 110.945 798.495 112.874Z" fill="#3E403A"/>
<path fill-rule="evenodd" clip-rule="evenodd" d="M795.201 115.366C796.5 115.366 797.552 114.25 797.552 112.874C797.552 111.497 796.5 110.382 795.201 110.382C793.903 110.382 792.85 111.497 792.85 112.874C792.85 114.25 793.903 115.366 795.201 115.366ZM795.201 116.366C797.021 116.366 798.495 114.803 798.495 112.874C798.495 110.945 797.021 109.382 795.201 109.382C793.382 109.382 791.907 110.945 791.907 112.874C791.907 114.803 793.382 116.366 795.201 116.366Z" fill="white"/>
<path d="M857.946 140.433C857.946 142.361 856.471 143.925 854.652 143.925C852.832 143.925 851.357 142.361 851.357 140.433C851.357 138.504 852.832 136.94 854.652 136.94C856.471 136.94 857.946 138.504 857.946 140.433Z" fill="#181A19"/>
<path fill-rule="evenodd" clip-rule="evenodd" d="M854.652 142.925C855.95 142.925 857.003 141.809 857.003 140.433C857.003 139.056 855.95 137.94 854.652 137.94C853.353 137.94 852.301 139.056 852.301 140.433C852.301 141.809 853.353 142.925 854.652 142.925ZM854.652 143.925C856.471 143.925 857.946 142.361 857.946 140.433C857.946 138.504 856.471 136.94 854.652 136.94C852.832 136.94 851.357 138.504 851.357 140.433C851.357 142.361 852.832 143.925 854.652 143.925Z" fill="white"/>
</svg>
